# xmcd CD database file
#
# Track frame offsets:
#	150
#	42440
#	79201
#	127503
#	163943
#	213126
#	280707
#
# Disc length: 4270 seconds
#
# Revision: 0
# Processed by: cddbd v1.5.2PL0 Copyright (c) Steve Scherf et al.
# Submitted via: CDex 1.51
#
DISCID=5510ac07
DTITLE=ahmad mansour - public domain (promo)
DYEAR=2006
DGENRE=Jazz
TTITLE0=a minor introduction
TTITLE1=school chums
TTITLE2=the haunt
TTITLE3=cascades
TTITLE4=right off the bat
TTITLE5=up for grabs
TTITLE6=main squeeze
EXTD=YEAR: 2006
EXTT0=
EXTT1=
EXTT2=
EXTT3=
EXTT4=
EXTT5=
EXTT6=
PLAYORDER=
